<?xml version="1.0" standalone="no"?>
<!DOCTYPE svg PUBLIC "-//W3C//DTD SVG 20010904//EN"
 "http://www.w3.org/TR/2001/REC-SVG-20010904/DTD/svg10.dtd">
<svg version="1.0" xmlns="http://www.w3.org/2000/svg"
 width="329.000000pt" height="116.000000pt" viewBox="0 0 329.000000 116.000000"
 preserveAspectRatio="xMidYMid meet">

<g transform="translate(0.000000,116.000000) scale(0.100000,-0.100000)"
fill="#000000" stroke="none">
<path d="M1525 1120 c-184 -21 -451 -90 -470 -121 -3 -4 20 1 52 12 81 28 278
66 407 78 203 20 567 13 766 -15 91 -13 30 6 -86 27 -93 16 -170 22 -354 24
-129 2 -271 0 -315 -5z"/>
<path d="M1465 1059 c-236 -25 -490 -109 -585 -195 -106 -96 -55 -197 129
-259 147 -50 233 -60 526 -60 290 0 394 11 580 60 81 21 199 65 135 50 -14 -3
-63 -15 -110 -26 -143 -33 -131 -33 -120 -3 6 14 11 42 11 62 1 23 3 29 6 15
5 -28 10 -28 100 -2 l73 22 17 -21 c10 -12 31 -23 47 -24 51 -5 69 60 44 159
-10 40 -12 44 -19 25 -5 -14 -17 -22 -31 -22 -13 0 -71 -10 -130 -21 -95 -19
-110 -20 -130 -7 -13 8 -42 15 -66 17 -33 2 -49 -3 -73 -23 -45 -38 -53 -34
-45 22 5 42 3 51 -15 68 -24 21 -48 22 -309 11 -97 -4 -140 -3 -115 2 67 15
288 31 425 31 l128 0 40 60 40 60 -141 0 c-229 -1 -365 -29 -452 -95 -53 -41
-88 -52 -229 -69 -150 -19 -186 -48 -186 -153 0 -29 -4 -53 -8 -53 -20 0 -52
48 -52 79 0 133 229 236 640 286 l105 13 -75 0 c-41 -1 -111 -4 -155 -9z m280
-29 c-16 -4 -50 -7 -75 -7 l-45 0 45 7 c25 4 59 7 75 7 l30 1 -30 -8z m-128
-16 c-3 -3 -12 -4 -19 -1 -8 3 -5 6 6 6 11 1 17 -2 13 -5z m122 -120 c43 -9
42 -43 -1 -69 -44 -26 -156 -28 -172 -3 -15 25 10 47 71 64 58 15 62 16 102 8z
m-249 -43 c0 -18 -70 -70 -107 -80 -49 -14 -204 -15 -183 -1 11 7 3 10 -30 12
l-45 1 39 4 c21 3 43 0 49 -6 6 -6 36 -10 67 -10 30 1 45 4 32 6 -29 6 -18 23
16 24 l27 1 -25 8 c-22 7 -21 8 15 10 l40 3 -40 7 c-22 4 -35 9 -30 10 6 2
-21 6 -60 10 -55 5 -38 7 83 8 84 1 152 -2 152 -7z m-253 -17 c-3 -4 -32 -8
-64 -10 -40 -2 -52 0 -38 6 23 10 112 13 102 4z m43 -34 c0 -3 -11 -6 -24 -6
-22 -2 -23 -1 -7 15 14 15 30 10 31 -9z m-70 10 c0 -5 -21 -9 -47 -9 l-48 2
40 7 c22 4 43 8 48 9 4 0 7 -3 7 -9z m806 -31 c8 -17 14 -34 12 -38 -2 -4 -12
12 -24 35 -23 48 -13 50 12 3z m-37 5 c12 -15 21 -34 21 -43 -1 -9 -7 -2 -14
15 -17 38 -28 46 -53 37 -18 -8 -18 -8 0 -26 18 -19 19 -18 12 3 -5 15 -4 20
4 16 30 -19 31 -125 1 -161 -8 -10 -9 -15 -2 -15 6 0 18 10 26 22 9 12 16 18
16 12 0 -13 -38 -54 -50 -54 -5 0 -22 11 -37 24 -25 22 -28 30 -28 89 0 50 4
70 19 86 26 29 60 26 85 -5z m-209 -179 l22 -20 -121 -5 c-67 -3 -169 -4 -226
-2 l-105 3 15 22 c14 21 20 22 203 22 176 0 191 -1 212 -20z"/>
<path d="M1655 881 c-44 -11 -75 -30 -75 -46 0 -21 9 -19 29 7 13 16 32 22 77
26 42 4 53 7 39 13 -24 9 -31 9 -70 0z"/>
<path d="M2033 1036 c-16 -14 -38 -43 -48 -65 l-18 -41 -90 0 -90 0 34 -23
c29 -20 38 -21 59 -11 23 11 222 28 337 29 28 0 49 4 46 8 -3 5 -53 8 -112 7
-58 -1 -112 -2 -120 -1 -18 1 -6 49 21 79 25 26 55 28 104 7 19 -8 32 -10 29
-5 -5 8 -97 40 -116 40 -4 0 -21 -11 -36 -24z"/>
<path d="M683 546 c-18 -8 -42 -32 -55 -55 -13 -23 -31 -41 -40 -41 -10 0 -25
-14 -34 -31 -12 -25 -13 -37 -4 -58 9 -23 6 -38 -20 -100 -39 -96 -34 -121 25
-121 23 0 47 6 53 13 6 6 27 54 47 105 35 86 39 92 66 92 16 0 29 5 29 10 0
17 18 11 25 -9 3 -10 -4 -39 -15 -65 -24 -57 -26 -109 -4 -131 12 -12 31 -15
73 -13 50 3 57 6 69 31 15 32 8 67 -15 67 -8 0 -13 6 -10 13 39 97 39 97 68
97 23 0 32 6 42 33 8 17 10 34 5 35 -4 2 -5 8 -2 14 3 5 -3 12 -14 15 -19 5
-19 7 -6 39 24 58 9 66 -62 34 -39 -17 -64 -36 -69 -49 -3 -12 -15 -21 -26
-21 -11 0 -22 -7 -25 -15 -4 -8 -10 -15 -15 -15 -5 0 -9 7 -9 15 0 8 -5 15
-11 15 -5 0 -7 5 -4 10 3 6 18 10 33 10 36 0 67 48 44 70 -21 19 -101 23 -139
6z"/>
<path d="M447 518 c-8 -18 -10 -35 -5 -36 4 -2 6 -8 2 -13 -3 -5 19 -9 50 -9
54 0 56 1 69 32 18 43 3 58 -57 58 -42 0 -47 -3 -59 -32z"/>
<path d="M2002 445 c-14 -31 -15 -35 -3 -35 5 0 14 14 20 30 12 36 -1 40 -17
5z"/>
<path d="M411 428 c-94 -243 -116 -288 -141 -288 -21 0 -77 -73 -60 -78 6 -2
8 -8 4 -13 -3 -5 25 -9 64 -9 62 0 71 3 96 29 36 37 157 329 149 359 -5 19
-12 22 -54 22 -42 0 -51 -3 -58 -22z"/>
<path d="M2017 360 c-3 -14 -14 -20 -31 -20 -22 0 -30 -8 -46 -46 -22 -50 -24
-64 -12 -64 4 0 15 19 23 43 13 34 21 43 43 45 23 3 46 32 46 58 0 13 -19 1
-23 -16z"/>
<path d="M2545 360 c-10 -11 -29 -20 -42 -20 -32 0 -55 -26 -88 -103 -29 -66
-30 -67 -67 -67 -27 0 -38 -4 -38 -15 0 -11 11 -15 40 -15 40 0 41 0 74 73 35
77 66 113 89 104 14 -5 67 40 67 56 0 13 -17 7 -35 -13z"/>
<path d="M1481 335 c-69 -179 -60 -164 -105 -167 -54 -4 -49 -23 6 -23 l42 0
39 98 c21 54 36 104 34 110 -3 7 -10 -1 -16 -18z"/>
<path d="M2665 349 c-4 -6 -5 -12 -4 -14 7 -7 59 8 59 16 0 13 -47 11 -55 -2z"/>
<path d="M2773 346 c-54 -12 -55 -26 -3 -26 27 0 43 5 47 15 8 21 5 22 -44 11z"/>
<path d="M1637 339 c-20 -12 -47 -61 -47 -86 1 -12 8 -5 20 18 18 35 63 65 81
54 5 -3 6 1 3 9 -7 18 -31 20 -57 5z"/>
<path d="M1791 327 c-5 -108 -160 -201 -253 -153 -20 11 -26 11 -22 1 8 -19
50 -35 92 -35 51 1 111 30 149 74 36 41 47 70 40 112 l-4 29 -2 -28z"/>
<path d="M2136 320 c-14 -17 -26 -35 -26 -40 0 -5 -3 -15 -6 -24 -3 -9 -1 -16
5 -16 6 0 11 7 11 16 0 24 58 77 76 70 10 -4 14 -1 12 6 -9 26 -45 19 -72 -12z"/>
<path d="M1171 326 c-7 -8 -25 -45 -41 -83 -27 -64 -31 -68 -66 -73 -53 -7
-57 -30 -6 -30 46 0 50 4 87 94 19 44 37 72 52 79 13 5 23 14 23 19 0 13 -37
9 -49 -6z"/>
<path d="M1327 323 c-8 -10 -27 -48 -42 -85 -27 -68 -27 -68 -66 -68 -29 0
-39 -4 -39 -16 0 -12 9 -14 42 -12 l42 3 32 75 c21 52 39 80 57 90 15 8 27 18
27 23 0 14 -37 7 -53 -10z"/>
<path d="M1845 330 c-3 -5 -1 -10 4 -10 6 0 11 5 11 10 0 6 -2 10 -4 10 -3 0
-8 -4 -11 -10z"/>
<path d="M2308 324 c-5 -4 -8 -14 -8 -23 0 -31 -53 -91 -103 -116 -54 -27 -98
-31 -144 -15 l-28 10 25 -21 c21 -17 35 -20 82 -17 74 5 132 44 166 110 22 42
28 91 10 72z"/>
<path d="M2580 271 c0 -9 39 -26 83 -35 15 -4 27 -2 27 4 0 5 -12 12 -27 16
-16 3 -40 10 -55 14 -16 5 -28 5 -28 1z"/>
<path d="M2770 237 c-28 -60 -140 -94 -217 -67 l-28 10 24 -20 c28 -24 114
-27 164 -6 46 19 79 59 75 89 -3 25 -3 25 -18 -6z"/>
<path d="M1953 190 c-6 -21 -56 -36 -98 -28 -28 6 -34 -6 -9 -16 22 -8 87 -7
100 2 12 8 28 62 18 62 -3 0 -8 -9 -11 -20z"/>
</g>
</svg>
